<mxfile host="app.diagrams.net" modified="2024-04-15T02:33:36.780Z" agent="Mozilla/5.0 (iPhone; CPU iPhone OS 17_4_1 like Mac OS X) AppleWebKit/605.1.15 (KHTML, like Gecko) Version/17.4.1 Mobile/15E148 Safari/604.1" version="24.2.5" etag="lJWxIy-4M8lkyDoLQqD0" type="github">
  <diagram name="第 1 页" id="lw8eJmcCPGFL-DVQokxS">
    <mxGraphModel>
      <root>
        <mxCell id="0" />
        <mxCell id="1" parent="0" />
      </root>
    </mxGraphModel>
  </diagram>
</mxfile>
